<svg width="116" height="41" viewBox="0 0 116 41" fill="none" xmlns="http://www.w3.org/2000/svg">
<g filter="url(#filter0_d_43_200)">
<path d="M6 0V3H3V6H0V31H3V34H6V37H9V0H6Z" fill="#FC6032"/>
</g>
<path d="M6 0V3H3V6H0V31H3V34H6V37H9V0H6Z" fill="white" fill-opacity="0.3"/>
<g filter="url(#filter1_d_43_200)">
<rect width="75" height="37" transform="translate(9)" fill="#FC6032"/>
<path d="M12.999 24.002V22H15.001V24.002H12.999ZM9 14.002H11.002V19.998H9V14.002ZM16.998 14.002H19V19.998H16.998V14.002ZM15.001 22V19.998H16.998V22H15.001ZM11.002 19.998H12.999V22H11.002V19.998ZM31.502 15.999H23.5039V18.001H29.5V19.998H23.5039V22H31.502V24.002H21.502V14.002H31.502V15.999ZM42.002 15.999H44.0039V18.001H42.002V15.999ZM44.0039 24.002H42.002V22H44.0039V24.002ZM40.0049 19.998H36.0059V24.002H34.0039V14.002H42.002V15.999H36.0059V18.001H42.002V22H40.0049V19.998ZM52.5068 15.999V22H56.5059V24.002H46.5059V22H50.5049V15.999H46.5059V14.002H56.5059V15.999H52.5068ZM59.0078 14.002H69.0078V15.999H61.0098V18.001H67.0059V19.998H61.0098V24.002H59.0078V14.002ZM71.5098 14.002H73.5117V18.001H71.5098V14.002ZM79.5078 14.002H81.5098V18.001H79.5078V14.002ZM73.5117 19.998V18.001H79.5078V19.998H77.5107V24.002H75.5088V19.998H73.5117Z" fill="white"/>
<rect x="9" width="75" height="37" fill="white" fill-opacity="0.3"/>
</g>
<g filter="url(#filter2_d_43_200)">
<path d="M87 37V34H90V31H93V6H90V3H87V0H84V37H87Z" fill="#FC6032"/>
</g>
<path d="M87 37V34H90V31H93V6H90V3H87V0H84V37H87Z" fill="white" fill-opacity="0.3"/>
<defs>
<filter id="filter0_d_43_200" x="0" y="0" width="12" height="40" filterUnits="userSpaceOnUse" color-interpolation-filters="sRGB">
<feFlood flood-opacity="0" result="BackgroundImageFix"/>
<feColorMatrix in="SourceAlpha" type="matrix" values="0 0 0 0 0 0 0 0 0 0 0 0 0 0 0 0 0 0 127 0" result="hardAlpha"/>
<feOffset dx="3" dy="3"/>
<feComposite in2="hardAlpha" operator="out"/>
<feColorMatrix type="matrix" values="0 0 0 0 0.117647 0 0 0 0 0.203922 0 0 0 0 0.270588 0 0 0 1 0"/>
<feBlend mode="normal" in2="BackgroundImageFix" result="effect1_dropShadow_43_200"/>
<feBlend mode="normal" in="SourceGraphic" in2="effect1_dropShadow_43_200" result="shape"/>
</filter>
<filter id="filter1_d_43_200" x="9" y="0" width="78" height="40" filterUnits="userSpaceOnUse" color-interpolation-filters="sRGB">
<feFlood flood-opacity="0" result="BackgroundImageFix"/>
<feColorMatrix in="SourceAlpha" type="matrix" values="0 0 0 0 0 0 0 0 0 0 0 0 0 0 0 0 0 0 127 0" result="hardAlpha"/>
<feOffset dx="3" dy="3"/>
<feComposite in2="hardAlpha" operator="out"/>
<feColorMatrix type="matrix" values="0 0 0 0 0.117647 0 0 0 0 0.203922 0 0 0 0 0.270588 0 0 0 1 0"/>
<feBlend mode="normal" in2="BackgroundImageFix" result="effect1_dropShadow_43_200"/>
<feBlend mode="normal" in="SourceGraphic" in2="effect1_dropShadow_43_200" result="shape"/>
</filter>
<filter id="filter2_d_43_200" x="84" y="0" width="12" height="40" filterUnits="userSpaceOnUse" color-interpolation-filters="sRGB">
<feFlood flood-opacity="0" result="BackgroundImageFix"/>
<feColorMatrix in="SourceAlpha" type="matrix" values="0 0 0 0 0 0 0 0 0 0 0 0 0 0 0 0 0 0 127 0" result="hardAlpha"/>
<feOffset dx="3" dy="3"/>
<feComposite in2="hardAlpha" operator="out"/>
<feColorMatrix type="matrix" values="0 0 0 0 0.117647 0 0 0 0 0.203922 0 0 0 0 0.270588 0 0 0 1 0"/>
<feBlend mode="normal" in2="BackgroundImageFix" result="effect1_dropShadow_43_200"/>
<feBlend mode="normal" in="SourceGraphic" in2="effect1_dropShadow_43_200" result="shape"/>
</filter>
</defs>
</svg>
